# xmcd
#
# Track frame offsets:
#	150
#	24825
#	66150
#	102110
#	131585
#	151439
#	165650
#	198200
#	224710
#	279308
#
# Disc length: 4452 seconds
#
# Revision: 1
# Processed by: cddbd v1.5.2PL0 Copyright (c) Steve Scherf et al.
# Submitted via: EasyCDDAExtractor 10.5.1.1
#
DISCID=8711620a
DTITLE=Allman Brothers Band - 16-08-94 Homedale, New Jersey
DYEAR=1900
DGENRE=Blues
TTITLE0=Statesboro Blues
TTITLE1=Blue Sky
TTITLE2=Same Thing
TTITLE3=Soulshine
TTITLE4=Seven Turns
TTITLE5=Midnight Rider
TTITLE6=Southbound
TTITLE7=Noone To Run With
TTITLE8=Back Where It All Begins
TTITLE9=One Way Out
EXTD=
EXTT0=
EXTT1=
EXTT2=
EXTT3=
EXTT4=
EXTT5=
EXTT6=
EXTT7=
EXTT8=
EXTT9=
PLAYORDER=
